<svg width="301" height="36" viewBox="0 0 301 36" fill="none" xmlns="http://www.w3.org/2000/svg">
<path d="M3.9165 28H0.132406L13.9904 1.81818H17.9534L23.1054 28H19.3213L15.3583 6.27983H15.1537L3.9165 28ZM6.5628 17.7599H20.0628L19.5514 20.8409H6.05144L6.5628 17.7599ZM33.1327 28.4091C31.2577 28.4091 29.7194 27.9744 28.5177 27.1051C27.316 26.2358 26.4765 25.0384 25.9992 23.5128C25.5305 21.9872 25.4623 20.2443 25.7947 18.2841C26.1185 16.2812 26.7748 14.517 27.7634 12.9915C28.7606 11.4659 30.0049 10.2727 31.4964 9.41193C32.9964 8.54261 34.6541 8.10795 36.4694 8.10795C37.9012 8.10795 39.1413 8.37642 40.1896 8.91335C41.2464 9.44176 42.0518 10.1832 42.6058 11.1378C43.1597 12.0923 43.4069 13.2088 43.3472 14.4872H39.9594C39.8913 13.5753 39.5333 12.7827 38.8856 12.1094C38.2379 11.4276 37.2833 11.0866 36.0219 11.0866C34.8969 11.0866 33.8657 11.3807 32.9282 11.9688C31.9907 12.5483 31.2023 13.3707 30.5631 14.4361C29.9239 15.4929 29.485 16.7415 29.2464 18.1818C28.9992 19.6477 29.0163 20.9219 29.2975 22.0043C29.5788 23.0866 30.0901 23.9261 30.8316 24.5227C31.5816 25.1193 32.5191 25.4176 33.6441 25.4176C34.4026 25.4176 35.11 25.2812 35.7663 25.0085C36.4225 24.7358 37.0021 24.348 37.5049 23.8452C38.0163 23.3338 38.4211 22.7244 38.7194 22.017H42.1072C41.7407 23.2358 41.1356 24.3267 40.2918 25.2898C39.4481 26.2528 38.4168 27.0156 37.1981 27.5781C35.9879 28.1321 34.6327 28.4091 33.1327 28.4091ZM51.9779 28.4091C50.1029 28.4091 48.5646 27.9744 47.3628 27.1051C46.1611 26.2358 45.3217 25.0384 44.8444 23.5128C44.3756 21.9872 44.3074 20.2443 44.6398 18.2841C44.9637 16.2812 45.6199 14.517 46.6086 12.9915C47.6057 11.4659 48.8501 10.2727 50.3415 9.41193C51.8415 8.54261 53.4992 8.10795 55.3146 8.10795C56.7464 8.10795 57.9864 8.37642 59.0347 8.91335C60.0915 9.44176 60.8969 10.1832 61.4509 11.1378C62.0049 12.0923 62.2521 13.2088 62.1924 14.4872H58.8046C58.7364 13.5753 58.3785 12.7827 57.7307 12.1094C57.083 11.4276 56.1285 11.0866 54.8671 11.0866C53.7421 11.0866 52.7109 11.3807 51.7734 11.9688C50.8359 12.5483 50.0475 13.3707 49.4083 14.4361C48.7691 15.4929 48.3302 16.7415 48.0915 18.1818C47.8444 19.6477 47.8614 20.9219 48.1427 22.0043C48.4239 23.0866 48.9353 23.9261 49.6768 24.5227C50.4268 25.1193 51.3643 25.4176 52.4893 25.4176C53.2478 25.4176 53.9552 25.2812 54.6114 25.0085C55.2677 24.7358 55.8472 24.348 56.3501 23.8452C56.8614 23.3338 57.2663 22.7244 57.5646 22.017H60.9523C60.5859 23.2358 59.9807 24.3267 59.137 25.2898C58.2932 26.2528 57.262 27.0156 56.0432 27.5781C54.833 28.1321 53.4779 28.4091 51.9779 28.4091ZM71.0532 28.4091C69.1441 28.4091 67.5674 27.9915 66.3231 27.1562C65.0787 26.3125 64.2094 25.1364 63.7151 23.6278C63.2208 22.1108 63.1441 20.3423 63.485 18.3224C63.8174 16.3111 64.4822 14.5384 65.4793 13.0043C66.4765 11.4616 67.7208 10.2599 69.2123 9.39915C70.7037 8.53835 72.3444 8.10795 74.1341 8.10795C75.208 8.10795 76.2265 8.28693 77.1895 8.64489C78.1526 8.99432 78.9793 9.55682 79.6697 10.3324C80.36 11.108 80.8415 12.1222 81.1143 13.375C81.387 14.6278 81.3742 16.1534 81.0759 17.9517L80.8586 19.2685H65.4665L65.9012 16.5199H77.8543C78.0418 15.4716 77.9949 14.5384 77.7137 13.7202C77.4324 12.8935 76.9466 12.2457 76.2563 11.777C75.566 11.2997 74.7009 11.0611 73.6611 11.0611C72.5873 11.0611 71.5816 11.3466 70.6441 11.9176C69.7151 12.4886 68.9395 13.2131 68.3174 14.0909C67.6952 14.9602 67.3032 15.8509 67.1412 16.7628L66.7449 19.2045C66.5063 20.7301 66.5447 21.9489 66.86 22.8608C67.1839 23.7727 67.7464 24.4332 68.5475 24.8423C69.3486 25.2514 70.3543 25.456 71.5645 25.456C72.3401 25.456 73.056 25.3494 73.7123 25.1364C74.3685 24.9148 74.9523 24.5866 75.4637 24.152C75.9836 23.7173 76.4182 23.1761 76.7677 22.5284L79.9125 23.2571C79.4438 24.2884 78.779 25.1918 77.9182 25.9673C77.0574 26.7344 76.0432 27.3352 74.8756 27.7699C73.7165 28.196 72.4424 28.4091 71.0532 28.4091ZM99.2467 12.9787L96.0123 13.6562C95.9271 13.2045 95.7609 12.7699 95.5137 12.3523C95.2751 11.9347 94.9086 11.5937 94.4143 11.3295C93.92 11.0653 93.2552 10.9332 92.42 10.9332C91.2694 10.9332 90.268 11.1974 89.4157 11.7259C88.5635 12.2457 88.0734 12.9105 87.9456 13.7202C87.8348 14.402 87.9967 14.9517 88.4314 15.3693C88.866 15.7869 89.6118 16.1278 90.6686 16.392L93.5961 17.108C95.3177 17.5341 96.545 18.1861 97.2779 19.0639C98.0194 19.9332 98.2751 21.0668 98.045 22.4645C97.849 23.6151 97.3461 24.6378 96.5365 25.5327C95.7268 26.419 94.6913 27.1222 93.4299 27.642C92.1771 28.1534 90.7794 28.4091 89.2368 28.4091C87.0975 28.4091 85.4228 27.9531 84.2126 27.0412C83.0109 26.1293 82.3845 24.821 82.3333 23.1165L85.7595 22.4773C85.8277 23.483 86.1856 24.2415 86.8333 24.7528C87.4811 25.2642 88.393 25.5199 89.5691 25.5199C90.9072 25.5284 92.0237 25.2472 92.9186 24.6761C93.8135 24.0966 94.3206 23.4062 94.4399 22.6051C94.5592 21.9574 94.4271 21.4205 94.0436 20.9943C93.66 20.5682 92.9953 20.2443 92.0493 20.0227L88.9044 19.2685C87.1402 18.8423 85.9001 18.1733 85.1842 17.2614C84.4768 16.3494 84.2382 15.2031 84.4683 13.8224C84.6643 12.6889 85.1501 11.696 85.9257 10.8438C86.7012 9.98295 87.6856 9.31392 88.8788 8.83665C90.072 8.35085 91.3845 8.10795 92.8163 8.10795C94.8618 8.10795 96.3958 8.55114 97.4186 9.4375C98.4413 10.3153 99.0507 11.4957 99.2467 12.9787ZM116.897 12.9787L113.662 13.6562C113.577 13.2045 113.411 12.7699 113.164 12.3523C112.925 11.9347 112.558 11.5937 112.064 11.3295C111.57 11.0653 110.905 10.9332 110.07 10.9332C108.919 10.9332 107.918 11.1974 107.066 11.7259C106.213 12.2457 105.723 12.9105 105.595 13.7202C105.485 14.402 105.647 14.9517 106.081 15.3693C106.516 15.7869 107.262 16.1278 108.318 16.392L111.246 17.108C112.968 17.5341 114.195 18.1861 114.928 19.0639C115.669 19.9332 115.925 21.0668 115.695 22.4645C115.499 23.6151 114.996 24.6378 114.186 25.5327C113.377 26.419 112.341 27.1222 111.08 27.642C109.827 28.1534 108.429 28.4091 106.887 28.4091C104.747 28.4091 103.073 27.9531 101.862 27.0412C100.661 26.1293 100.034 24.821 99.9832 23.1165L103.409 22.4773C103.478 23.483 103.835 24.2415 104.483 24.7528C105.131 25.2642 106.043 25.5199 107.219 25.5199C108.557 25.5284 109.674 25.2472 110.568 24.6761C111.463 24.0966 111.97 23.4062 112.09 22.6051C112.209 21.9574 112.077 21.4205 111.693 20.9943C111.31 20.5682 110.645 20.2443 109.699 20.0227L106.554 19.2685C104.79 18.8423 103.55 18.1733 102.834 17.2614C102.127 16.3494 101.888 15.2031 102.118 13.8224C102.314 12.6889 102.8 11.696 103.576 10.8438C104.351 9.98295 105.335 9.31392 106.529 8.83665C107.722 8.35085 109.034 8.10795 110.466 8.10795C112.512 8.10795 114.046 8.55114 115.068 9.4375C116.091 10.3153 116.701 11.4957 116.897 12.9787ZM117.697 28L120.97 8.36364H124.409L121.136 28H117.697ZM123.552 5.1804C122.921 5.1804 122.384 4.96733 121.941 4.54119C121.507 4.11506 121.298 3.60369 121.315 3.0071C121.332 2.41051 121.571 1.89915 122.031 1.47301C122.491 1.04687 123.032 0.833806 123.654 0.833806C124.285 0.833806 124.818 1.04687 125.252 1.47301C125.696 1.89915 125.909 2.41051 125.892 3.0071C125.875 3.60369 125.636 4.11506 125.176 4.54119C124.715 4.96733 124.174 5.1804 123.552 5.1804ZM125.369 28L129.715 1.81818H133.154L131.569 11.5213H131.812C132.093 11.1463 132.481 10.6903 132.975 10.1534C133.47 9.61648 134.122 9.14347 134.931 8.73438C135.749 8.31676 136.785 8.10795 138.038 8.10795C139.649 8.10795 141.012 8.51705 142.129 9.33523C143.245 10.1449 144.029 11.3082 144.481 12.8253C144.941 14.3338 145.001 16.1364 144.66 18.233C144.311 20.3295 143.654 22.1364 142.691 23.6534C141.737 25.1705 140.569 26.3423 139.188 27.169C137.808 27.9872 136.312 28.3963 134.701 28.3963C133.474 28.3963 132.515 28.1918 131.825 27.7827C131.143 27.3736 130.636 26.9006 130.303 26.3636C129.98 25.8182 129.732 25.3494 129.562 24.9574H129.23L128.718 28H125.369ZM130.38 18.1818C130.15 19.6051 130.154 20.8622 130.393 21.9531C130.632 23.0355 131.096 23.8793 131.786 24.4844C132.485 25.0895 133.41 25.392 134.561 25.392C135.762 25.392 136.815 25.0767 137.718 24.446C138.63 23.8068 139.38 22.9418 139.968 21.8509C140.556 20.7599 140.965 19.5369 141.196 18.1818C141.409 16.8437 141.4 15.642 141.17 14.5767C140.948 13.5028 140.488 12.6548 139.789 12.0327C139.09 11.4105 138.136 11.0994 136.926 11.0994C135.758 11.0994 134.723 11.3977 133.819 11.9943C132.924 12.5824 132.183 13.4091 131.595 14.4744C131.015 15.5312 130.61 16.767 130.38 18.1818ZM146.001 28L149.273 8.36364H152.712L149.439 28H146.001ZM151.856 5.1804C151.225 5.1804 150.688 4.96733 150.245 4.54119C149.81 4.11506 149.601 3.60369 149.618 3.0071C149.635 2.41051 149.874 1.89915 150.334 1.47301C150.795 1.04687 151.336 0.833806 151.958 0.833806C152.589 0.833806 153.121 1.04687 153.556 1.47301C153.999 1.89915 154.212 2.41051 154.195 3.0071C154.178 3.60369 153.939 4.11506 153.479 4.54119C153.019 4.96733 152.478 5.1804 151.856 5.1804ZM161.1 1.81818L156.753 28H153.314L157.661 1.81818H161.1ZM160.628 28L163.901 8.36364H167.34L164.067 28H160.628ZM166.483 5.1804C165.853 5.1804 165.316 4.96733 164.873 4.54119C164.438 4.11506 164.229 3.60369 164.246 3.0071C164.263 2.41051 164.502 1.89915 164.962 1.47301C165.422 1.04687 165.964 0.833806 166.586 0.833806C167.216 0.833806 167.749 1.04687 168.184 1.47301C168.627 1.89915 168.84 2.41051 168.823 3.0071C168.806 3.60369 168.567 4.11506 168.107 4.54119C167.647 4.96733 167.106 5.1804 166.483 5.1804ZM180.087 8.36364L179.627 11.1889H169.17L169.617 8.36364H180.087ZM173.312 3.65909H176.751L173.644 22.2983C173.516 23.0909 173.537 23.6875 173.708 24.0881C173.878 24.4801 174.143 24.7443 174.501 24.8807C174.858 25.017 175.255 25.0852 175.689 25.0852C176.005 25.0852 176.273 25.0639 176.495 25.0213C176.716 24.9787 176.891 24.9446 177.019 24.919L177.224 27.8722C176.985 27.9489 176.661 28.0298 176.252 28.1151C175.843 28.2088 175.344 28.2557 174.756 28.2557C173.819 28.2642 172.958 28.0852 172.174 27.7188C171.398 27.3438 170.81 26.7727 170.41 26.0057C170.009 25.2386 169.907 24.2713 170.103 23.1037L173.312 3.65909ZM180.741 35.3636C180.204 35.3636 179.722 35.321 179.296 35.2358C178.878 35.1506 178.576 35.0611 178.388 34.9673L179.731 32.0653C180.421 32.2528 181.035 32.3168 181.572 32.2571C182.108 32.1974 182.62 31.9545 183.106 31.5284C183.591 31.1023 184.09 30.4247 184.601 29.4957L185.381 28.0895L181.495 8.36364H185.049L187.657 23.8452H187.861L195.621 8.36364H199.482L187.58 30.7102C187.018 31.7585 186.391 32.6236 185.701 33.3054C185.019 33.9957 184.265 34.5114 183.438 34.8523C182.611 35.1932 181.712 35.3636 180.741 35.3636ZM206.9 28L210.172 8.36364H213.496L212.972 11.5085H213.215C213.812 10.4347 214.617 9.59943 215.631 9.00284C216.654 8.40625 217.809 8.10795 219.096 8.10795C220.383 8.10795 221.418 8.41051 222.202 9.01562C222.995 9.61222 223.527 10.4432 223.8 11.5085H224.005C224.661 10.4602 225.547 9.63352 226.664 9.02841C227.789 8.41477 229.059 8.10795 230.473 8.10795C232.221 8.10795 233.567 8.66619 234.513 9.78267C235.459 10.8906 235.745 12.5781 235.37 14.8452L233.171 28H229.719L231.893 15.0369C232.114 13.6392 231.897 12.642 231.241 12.0455C230.593 11.4403 229.749 11.1378 228.709 11.1378C227.397 11.1378 226.314 11.5341 225.462 12.3267C224.61 13.1108 224.086 14.1207 223.89 15.3565L221.768 28H218.303L220.527 14.7685C220.698 13.669 220.493 12.7912 219.914 12.1349C219.334 11.4702 218.491 11.1378 217.383 11.1378C216.633 11.1378 215.9 11.3381 215.184 11.7386C214.476 12.1392 213.867 12.6932 213.356 13.4006C212.853 14.0994 212.529 14.9048 212.384 15.8168L210.351 28H206.9ZM239.063 28H235.278L249.136 1.81818H253.1L258.252 28H254.467L250.504 6.27983H250.3L239.063 28ZM241.709 17.7599H255.209L254.698 20.8409H241.198L241.709 17.7599ZM259.148 35.3636L263.673 8.36364H267.023L266.511 11.5213H266.844C267.125 11.1463 267.513 10.6903 268.007 10.1534C268.502 9.61648 269.158 9.14347 269.976 8.73438C270.794 8.31676 271.825 8.10795 273.07 8.10795C274.689 8.10795 276.053 8.51705 277.161 9.33523C278.269 10.1449 279.053 11.3082 279.513 12.8253C279.982 14.3338 280.041 16.1364 279.692 18.233C279.351 20.3295 278.699 22.1364 277.736 23.6534C276.773 25.1705 275.601 26.3423 274.22 27.169C272.848 27.9872 271.352 28.3963 269.733 28.3963C268.514 28.3963 267.56 28.1918 266.869 27.7827C266.179 27.3736 265.672 26.9006 265.348 26.3636C265.024 25.8182 264.777 25.3494 264.607 24.9574H264.364L262.625 35.3636H259.148ZM265.425 18.1818C265.195 19.6051 265.195 20.8622 265.425 21.9531C265.655 23.0355 266.119 23.8793 266.818 24.4844C267.526 25.0895 268.455 25.392 269.605 25.392C270.798 25.392 271.847 25.0767 272.75 24.446C273.662 23.8068 274.412 22.9418 275 21.8509C275.588 20.7599 275.997 19.5369 276.227 18.1818C276.44 16.8437 276.432 15.642 276.202 14.5767C275.98 13.5028 275.52 12.6548 274.821 12.0327C274.131 11.4105 273.176 11.0994 271.957 11.0994C270.798 11.0994 269.767 11.3977 268.864 11.9943C267.969 12.5824 267.227 13.4091 266.639 14.4744C266.06 15.5312 265.655 16.767 265.425 18.1818ZM279.821 35.3636L284.347 8.36364H287.696L287.185 11.5213H287.517C287.798 11.1463 288.186 10.6903 288.68 10.1534C289.175 9.61648 289.831 9.14347 290.649 8.73438C291.467 8.31676 292.499 8.10795 293.743 8.10795C295.362 8.10795 296.726 8.51705 297.834 9.33523C298.942 10.1449 299.726 11.3082 300.186 12.8253C300.655 14.3338 300.715 16.1364 300.365 18.233C300.024 20.3295 299.372 22.1364 298.409 23.6534C297.446 25.1705 296.274 26.3423 294.894 27.169C293.521 27.9872 292.026 28.3963 290.406 28.3963C289.188 28.3963 288.233 28.1918 287.543 27.7827C286.852 27.3736 286.345 26.9006 286.021 26.3636C285.698 25.8182 285.45 25.3494 285.28 24.9574H285.037L283.298 35.3636H279.821ZM286.098 18.1818C285.868 19.6051 285.868 20.8622 286.098 21.9531C286.328 23.0355 286.793 23.8793 287.492 24.4844C288.199 25.0895 289.128 25.392 290.278 25.392C291.472 25.392 292.52 25.0767 293.423 24.446C294.335 23.8068 295.085 22.9418 295.673 21.8509C296.261 20.7599 296.671 19.5369 296.901 18.1818C297.114 16.8437 297.105 15.642 296.875 14.5767C296.653 13.5028 296.193 12.6548 295.494 12.0327C294.804 11.4105 293.849 11.0994 292.631 11.0994C291.472 11.0994 290.44 11.3977 289.537 11.9943C288.642 12.5824 287.901 13.4091 287.313 14.4744C286.733 15.5312 286.328 16.767 286.098 18.1818Z" fill="url(#paint0_linear_19_61)"/>
<defs>
<linearGradient id="paint0_linear_19_61" x1="151.5" y1="-7" x2="256.854" y2="-7" gradientUnits="userSpaceOnUse">
<stop offset="0.796775" stop-color="#4710BB"/>
<stop offset="0.796875" stop-color="#E10A4B" stop-opacity="0.78"/>
</linearGradient>
</defs>
</svg>
