  <svg xmlns="http://www.w3.org/2000/svg" viewBox="0 0 25 25" >
    <path
      fill="#260162"
      fillRule="evenodd"
      d="M22.396 22.4c-.782.78-2.049.78-2.832 0l-7.08-7.08-7.08 7.08c-.782.78-2.05.78-2.832 0a2.012 2.012 0 0 1 0-2.84l7.08-7.08-7.08-7.08a2 2 0 0 1 0-2.83c.782-.78 2.05-.78 2.832 0l7.08 7.08 7.08-7.08c.783-.78 2.05-.78 2.832 0 .783.78.783 2.05 0 2.83l-7.08 7.08 7.08 7.08a2.01 2.01 0 0 1 0 2.84Zm-4.248-9.92 5.665-5.66a4.002 4.002 0 0 0 0-5.66 3.996 3.996 0 0 0-5.665 0l-5.664 5.66L6.82 1.16a3.994 3.994 0 0 0-5.664 0 4.002 4.002 0 0 0 0 5.66l5.664 5.66-5.664 5.67a4.002 4.002 0 0 0 0 5.66 3.994 3.994 0 0 0 5.664 0l5.664-5.66 5.664 5.66a3.996 3.996 0 0 0 5.665 0 4.002 4.002 0 0 0 0-5.66l-5.665-5.67Z"
    />
  </svg>