<?xml version="1.0" standalone="no"?>
<!DOCTYPE svg PUBLIC "-//W3C//DTD SVG 20010904//EN"
 "http://www.w3.org/TR/2001/REC-SVG-20010904/DTD/svg10.dtd">
<svg version="1.0" xmlns="http://www.w3.org/2000/svg"
 width="791.000000pt" height="778.000000pt" viewBox="0 0 791.000000 778.000000"
 preserveAspectRatio="xMidYMid meet">
<metadata>
Created by potrace 1.16, written by Peter Selinger 2001-2019
</metadata>
<g transform="translate(0.000000,778.000000) scale(0.100000,-0.100000)"
fill="#000000" stroke="none">
<path d="M3550 5220 c-444 -94 -720 -448 -756 -967 -9 -140 -6 -151 53 -155
35 -2 50 -9 65 -28 23 -32 38 -120 38 -229 l0 -85 31 30 c36 34 80 124 104
209 10 37 19 118 22 213 l6 154 26 -6 c67 -16 299 -18 396 -2 290 44 541 165
656 314 22 29 28 32 52 23 38 -15 102 -76 131 -125 66 -112 96 -276 97 -531 0
-176 1 -179 15 -126 36 134 106 206 176 182 17 -6 33 -9 36 -7 2 3 7 72 9 153
20 558 -225 906 -694 988 -121 21 -354 19 -463 -5z"/>
<path d="M2995 2273 c-99 -30 -182 -59 -185 -63 -3 -5 -44 -25 -90 -45 -188
-80 -335 -174 -399 -255 -32 -41 -43 -70 -79 -206 -50 -192 -122 -505 -122
-530 0 -14 33 -38 118 -86 928 -528 2072 -527 2997 5 39 22 84 50 101 63 l31
23 -23 103 c-40 182 -74 310 -121 451 -41 124 -51 144 -95 192 -27 30 -80 74
-116 99 -66 43 -234 130 -302 156 -19 7 -39 18 -45 25 -10 11 -341 115 -368
115 -9 0 -12 -11 -10 -37 8 -78 54 -490 62 -548 5 -33 8 -61 7 -62 -1 -1 -60
51 -131 116 -72 66 -131 118 -133 116 -2 -1 -56 -184 -121 -406 -191 -648
-234 -790 -242 -782 -4 5 -86 271 -183 592 -97 322 -178 587 -181 589 -2 2
-59 -46 -127 -108 -67 -61 -124 -107 -126 -101 -2 5 10 128 27 273 42 364 43
368 39 367 -2 0 -84 -25 -183 -56z"/>
</g>
</svg>
